<svg xmlns="http://www.w3.org/2000/svg" viewBox="0 0 2500 2500"><g id="Group"><path id="Path" fill="#282a36" fill-rule="evenodd" stroke="none" d="M 0 0 L 2500 0 L 2500 2500 L 0 2500 L 0 0 Z"/><path id="path1" fill="#ff79c6" fill-rule="evenodd" stroke="none" d="M 1141.417114 899.803345 C 1163.686157 846.017822 1095.724609 790.753662 1111.910889 776.344238 L 1116.528076 773.892944 C 1134.024292 775.786499 1150.833252 795.241089 1160.469727 808.275757 C 1197.563232 858.546509 1197.096436 883.059448 1187.978638 933.641479 C 1201.97998 947.924805 1214.235718 963.820435 1224.488525 980.994141 L 1227.601196 981.29248 C 1251.206177 901.126221 1278.157349 805.578003 1277.119751 725.671265 C 1277.119751 725.671265 1273.021362 639.422363 1268.533813 627.438354 C 1256.108765 594.054199 1185.034546 478.817749 1162.389282 442.320801 C 1108.888916 356.2146 962.784607 155.987305 947.947083 110.281982 C 1045.791138 154.28833 1220.817993 378.068604 1303.214966 524.821533 C 1318.233887 551.591064 1349.114868 614.118408 1357.24707 643.300293 C 1372.29187 697.332397 1373.199829 784.151978 1362.772095 839.714478 C 1354.821655 882.307129 1344.380981 949.399658 1324.796631 997.348999 L 1332.630371 999.787231 C 1392.641479 936.94873 1465.090576 871.062378 1503.52002 793.243774 C 1503.52002 793.243774 1538.979248 714.543213 1540.457886 701.807007 C 1544.530396 666.425415 1533.570923 531.500977 1529.939331 488.687744 C 1521.405273 387.692139 1474.765991 206.750977 1482.314453 159.307617 C 1549.523804 242.910645 1611.182007 457.962402 1617.939331 626.128418 C 1619.184448 656.814819 1618.31543 726.540283 1612.310425 756.215088 C 1601.195313 811.167969 1562.55835 888.934692 1528.032837 933.719238 C 1505.011475 963.601563 1478.280762 993.911987 1447.90564 1018.775024 C 1453.832886 1017.620728 1459.70813 1016.544189 1465.557495 1015.558594 C 1521.314453 1006.129517 1608.095215 1008.528931 1661.880737 1024.52063 C 1690.881226 1033.145508 1752.876709 1065.115967 1779.399902 1080.614868 C 1924.700195 1165.527954 2085.62915 1320.94458 2127.936279 1419.52771 C 2082.490234 1403.873291 1944.608765 1277.794312 1859.397339 1222.841309 C 1823.328369 1199.547607 1709.363159 1126.462891 1676.173462 1113.493164 C 1664.241333 1108.798096 1578.096191 1103.182251 1578.096191 1103.182251 C 1528.655396 1101.677734 1477.372925 1111.78125 1427.024292 1125.088257 C 1492.638306 1162.311401 1605.91626 1260.038574 1642.088989 1286.691528 C 1687.612915 1320.218262 1764.445679 1416.013062 1790.281494 1465.790894 C 1804.262939 1492.664307 1824.327148 1559.471558 1831.577148 1589.276123 C 1871.394409 1752.811768 1896.049927 2035.838135 1854.507813 2134.745361 C 1834.197144 2091.192871 1804.483398 1845.130737 1784.873047 1745.678467 C 1776.533569 1703.513794 1749.919678 1570.807129 1736.23645 1537.902832 C 1731.320923 1526.061523 1675.512085 1460.162109 1675.512085 1460.162109 C 1618.899048 1397.946167 1502.469482 1296.263184 1425.416016 1247.081787 C 1437.957886 1504.765137 1310.815186 1529.861572 1310.815186 1529.861572 C 1209.547363 1574.827637 1103.98645 1511.223999 1036.504639 1398.490845 C 994.767944 1478.008545 944.250793 1633.54187 927.117737 1719.297852 C 927.117737 1719.297852 913.227112 1804.483398 915.107666 1817.206543 C 920.321533 1852.406616 965.871399 1979.912476 980.462341 2020.300293 C 1014.858154 2115.679932 1116.151978 2341.872559 1121.171265 2389.679199 C 1034.598145 2326.308838 909.932739 2071.011963 859.882507 1910.32959 C 850.71283 1881.005005 833.514893 1813.445557 831.621338 1783.199951 C 828.158386 1727.261353 844.681885 1605.527222 866.43219 1553.362793 C 886.781738 1504.466797 948.85498 1324.537231 990.552856 1272.398804 C 990.552856 1272.398804 849.986572 1332.95459 799.598999 1376.3125 C 799.598999 1376.3125 736.189819 1434.922974 729.860535 1446.063965 C 712.260559 1477.035767 669.654907 1605.527222 656.257141 1646.356079 C 624.662781 1742.669434 596.842651 1927.423706 571.382996 1968.161865 C 542.188049 1864.922363 569.47644 1642.893066 628.95575 1485.440186 C 639.785522 1456.712158 667.852112 1392.874878 684.972168 1367.895142 C 716.683289 1321.683838 782.621521 1265.187622 831.893677 1237.419312 C 863.812256 1219.469238 899.115967 1202.46582 935.638855 1191.428589 C 885.549622 1190.014771 827.017029 1182.47937 790.597961 1171.779297 C 736.358398 1155.826538 659.369873 1115.633179 618.074158 1077.696655 C 595.766174 1057.191528 554.068359 1001.29187 537.039063 975.754395 C 443.682678 835.719727 367.148102 625.518799 372.361938 518.349609 C 406.355682 552.330444 475.017639 726.086426 527.454407 812.841064 C 549.69751 849.610474 620.110413 965.209839 644.208191 991.434814 C 652.88501 1000.889648 727.85022 1043.715942 727.85022 1043.715942 C 805.772583 1084.661377 904.731934 1095.102051 991.071655 1111.029053 C 942.136658 1085.348877 874.110352 1019.566162 838.923279 983.873413 C 799.209839 943.628174 751.39032 871.153198 733.647766 817.951172 C 724.063049 789.223145 714.685913 720.120239 712.19574 689.524658 C 698.421814 521.786621 718.369324 238.397217 774.891541 147.206787 C 788.146667 193.405029 779.002991 441.088623 782.816101 542.382568 C 784.411377 585.3125 789.975403 720.574219 798.314941 755.190552 C 801.336914 767.654419 846.147461 841.452393 846.147461 841.452393 C 891.619507 910.736938 971.383545 977.14209 1037.256958 1031.537231 C 1043.093384 1009.345947 1043.404541 984.651611 1048.48877 961.772949 C 1018.424866 923.304688 1007.322754 901.398682 1016.258911 841.154175 C 1018.619446 825.136475 1024.352051 800.052979 1038.916992 790.182861 L 1044.130859 790.182861 C 1064.934448 795.228149 1031.939331 874.071289 1074.428345 911.683716 C 1094.868652 890.698608 1118.525513 889.97229 1141.417114 899.803345 Z M 1998.666748 2119.998779 L 1958.797607 2119.998779 L 1958.797607 2127.326904 L 1974.296631 2127.326904 L 1974.296631 2170.217773 L 1983.193726 2170.217773 L 1983.193726 2127.326904 L 1998.666748 2127.326904 L 1998.666748 2119.998779 Z M 2021.10437 2119.998779 L 2007.447388 2119.998779 L 2007.447388 2170.217773 L 2016.370361 2170.217773 L 2016.370361 2129.388916 L 2016.603882 2129.388916 L 2032.336182 2170.217773 L 2038.445068 2170.217773 L 2054.177246 2129.388916 L 2054.410645 2129.388916 L 2054.410645 2170.217773 L 2063.333984 2170.217773 L 2063.333984 2119.998779 L 2049.676758 2119.998779 L 2035.539795 2156.949707 L 2021.10437 2119.998779 Z"/></g></svg>